<?xml version="1.0" standalone="no"?>
<!DOCTYPE svg PUBLIC "-//W3C//DTD SVG 20010904//EN"
 "http://www.w3.org/TR/2001/REC-SVG-20010904/DTD/svg10.dtd">
<svg version="1.0" xmlns="http://www.w3.org/2000/svg"
 width="340.000000pt" height="340.000000pt" viewBox="0 0 340.000000 340.000000"
 preserveAspectRatio="xMidYMid meet">
<metadata>
Created by potrace 1.14, written by Peter Selinger 2001-2017
</metadata>
<g transform="translate(0.000000,340.000000) scale(0.100000,-0.100000)"
fill="#000000" stroke="none">
<path d="M1696 3317 c-94 -234 -300 -600 -394 -703 -27 -29 -163 -211 -209
-279 -306 -456 -389 -822 -263 -1166 34 -93 86 -186 154 -273 l46 -59 1 49 c0
27 2 56 3 64 2 8 6 39 10 68 9 79 59 221 111 319 42 79 154 250 207 316 47 59
155 184 200 232 25 28 56 61 68 75 12 14 31 36 44 50 266 301 417 669 419
1025 1 109 -17 274 -29 263 -1 -2 -5 -17 -8 -33 -3 -17 -8 -43 -11 -60 -14
-75 -68 -263 -82 -288 -3 -5 -11 0 -19 11 -24 34 -141 275 -179 367 -21 50
-38 91 -39 92 0 1 -14 -31 -30 -70z"/>
<path d="M2258 2874 c-2 -5 -5 -22 -6 -38 -6 -100 -85 -348 -163 -514 -103
-220 -278 -472 -454 -656 -51 -53 -181 -219 -231 -296 -103 -159 -185 -338
-209 -461 -32 -158 -32 -261 0 -384 12 -47 25 -89 29 -92 3 -4 6 14 6 39 0
130 57 325 136 468 101 184 211 328 430 566 16 17 49 55 74 84 25 29 50 58 55
64 24 26 95 127 138 196 70 113 164 326 183 415 1 6 9 39 18 75 21 90 30 178
30 290 0 134 -20 273 -36 244z"/>
<path d="M2459 2453 c-1 -15 -9 -53 -28 -140 -69 -310 -226 -620 -460 -908
-36 -44 -68 -82 -71 -85 -15 -11 -169 -190 -212 -246 -140 -182 -240 -377
-289 -566 -29 -112 -32 -302 -5 -403 22 -85 36 -103 37 -49 3 143 47 306 120
439 l28 50 118 -2 c278 -5 518 90 707 282 94 95 190 246 222 350 49 160 63
299 45 441 -14 107 -75 295 -132 407 -42 81 -42 83 -44 202 -2 106 -19 235
-31 235 -2 0 -4 -3 -5 -7z"/>
</g>
</svg>
